# xmcd
#
# Track frame offsets: 
#        150
#        16825
#        32092
#        46296
#        63060
#        85335
#        99840
#        115761
#        129584
#        156814
#        180022
#        195608
#        218605
#        245332
#        257593
#
# Disc length: 3901 seconds
#
# Revision: 1
# Processed by: cddbd v1.5.2PL0 Copyright (c) Steve Scherf et al.
# Submitted via: ExactAudioCopy v0.95a4
#
DISCID=af0f3b0f
DTITLE=Grainne Duffy - Live
DYEAR=2015
DGENRE=Blues
TTITLE0=Each And Every Time
TTITLE1=Let Me In
TTITLE2=What Am I Supposed To Do
TTITLE3=Don't Know Why
TTITLE4=Drivin' Me Crazy
TTITLE5=Be Just Fine
TTITLE6=Bring It All Together
TTITLE7=Reason To Be
TTITLE8=Good Love Had To Die
TTITLE9=Love Me Like A Man
TTITLE10=Rockin' Rollin' Stone
TTITLE11=Bad To Worse
TTITLE12=Time Is Not Enough
TTITLE13=Waiting For You
TTITLE14=I'd Rather Go Blind
EXTD=Year: 2015\n\n\n\n\n\n                                           
EXTD=       www.grainneduffy.com
EXTT0=
EXTT1=
EXTT2=
EXTT3=
EXTT4=
EXTT5=
EXTT6=
EXTT7=
EXTT8=
EXTT9=
EXTT10=
EXTT11=
EXTT12=
EXTT13=
EXTT14=
PLAYORDER=
